<svg id="ad40583c-893e-4acd-b726-77686089a6bd" data-name="Layer 1" xmlns="http://www.w3.org/2000/svg" viewBox="0 0 300 300"><defs><style>.a1fde336-2f0e-40bb-9a96-d356e35104ba{fill:#ceff7d;}</style></defs><path class="a1fde336-2f0e-40bb-9a96-d356e35104ba" d="M107.3,281.5c-16.5-10-32.9-19.5-49.8-28.8C36.7,241.3,26.3,235.6,20.1,225h0c-6.1-10.6-5.8-22.4-5.3-46.2.1-7.2.3-15.7.3-28.8s-.2-21.6-.3-28.8C14.3,97.5,14,85.6,20.1,75S36.7,58.7,57.5,47.3c7.5-4.2,16.3-9,25.1-14.1h0c10.7-6.2,18.3-10.8,24.7-14.7C127.7,6.2,137.9,0,150,0s22.3,6.2,42.7,18.5l17.8,10.7c7,3.1,15,8,26,14.6l2.4,1.5,3.6,2c20.8,11.4,31.2,17.1,37.4,27.7h0c6.1,10.5,5.8,22.4,5.3,46.1.3,12.5.5,21.7-.3,29.2,0,12.9.2,21.3.3,28.5.5,23.7.8,35.6-5.3,46.2s-16.6,16.3-37.4,27.7c-7.5,4.2-16.3,9-25.1,14.1h0c-10.7,6.2-18.3,10.8-24.7,14.7C172.3,293.8,162.1,300,150,300c-14.4,0-30.8-11.3-42.7-18.5ZM264.8,122c-5.7,3.7-13,7.7-22.3,12.8-7.1,3.9-15.5,8.5-25.1,14s-18.3,10.8-24.7,14.7c-17.7,10.7-27.6,16.7-38,18.2s-18.9-1.6-32-9c.2,8.6.4,18.6.4,27.9v8.7c27,16.3,28.7,15.2,59.1-3.1,7.3-4.5,16-9.7,25-15s18.5-10.4,25.5-14.3c12.3-6.7,29.6-12.4,31.8-27.2,0-9.3.2-19.2.3-27.7ZM122.6,149c15.4,9.3,22.9,13.4,29.3,12.5s14.9-6.1,30.3-15.4c7.3-4.4,16-9.7,25-14.9s18.5-10.4,25.5-14.3c22-12.1,29.5-16.2,31.5-26-1.8-9.4-10-14.5-18.5-17.8-11-4.4-17.9-.2-40.3,13.4-7.3,4.4-16,9.7-25.1,14.9s-18.5,10.5-25.5,14.3c-17.5,9.6-26.2,14.4-29.5,20.1h0c-1.7,2.9-2.4,7.1-2.7,13.2Zm142.3,32.8c-5.7,3.8-13,7.9-22.4,13-7.1,3.9-15.5,8.6-25.1,14.1s-18.3,10.8-24.7,14.7c-36.8,22.3-41.9,25.3-70.1,9.1-.5,27.5-.2,33.5,14,42.4,5.7,3,9.8,4.5,13.4,4.5,6.6,0,15.1-5.2,32.2-15.5,7.3-4.5,16-9.7,25-14.9h.1c11-6.4,18.8-10.7,25.4-14.3,17.5-9.7,26.3-14.5,29.5-20.1s3.1-14.7,2.7-33ZM102.2,254.7c-.2-6.7-.1-15,.1-25.4.2-7.2.4-15.7.4-28.7s-.2-21.6-.4-28.8c-.5-23.8-.7-35.7,5.4-46.2h0c6.1-10.6,16.5-16.3,37.3-27.8,7.2-3.9,15.6-8.5,25.1-14S188.4,73,194.9,69.1c8.9-5.4,15.9-9.7,21.9-12.8l-9.5-5.5-5.6-3.2c-3.8-1.5-6.7-2.1-9.5-1.8-6.4.7-15,5.9-30.6,15.4-7.3,4.4-16,9.7-25,14.9s-18.5,10.5-25.5,14.3c-17.6,9.6-26.3,14.5-29.6,20.1s-3,15.6-2.6,35.6c.2,8.9.4,19.5.4,29.2s-.2,20.2-.4,29.2c-.4,21.2-4.6,34,13.8,44.7,3.4,1.9,6.6,3.7,9.5,5.5ZM58.5,230c-.3-6.8-.2-15.2.1-25.9.1-7.2.3-15.7.3-28.8s-.2-21.6-.3-28.8c-.5-23.8-.8-35.6,5.3-46.2S80.4,84,101.3,72.5c7.1-3.9,15.5-8.5,25-14s18.4-10.8,24.8-14.7c9.3-5.6,16.4-9.9,22.6-13-11.6-6.9-18.3-10.4-23.7-10.4s-15.1,5.2-32.2,15.5c-7.3,4.5-16,9.7-25,14.9h-.1c-11,6.4-18.8,10.7-25.4,14.3C49.8,74.8,41,79.6,37.8,85.2s-3.1,15.6-2.7,35.6c.2,8.9.4,19.5.4,29.2s-.2,20.3-.4,29.2c-.4,19.9-.6,29.9,2.7,35.6h0c2.6,4.6,8.9,8.6,20.7,15.2Z"/></svg>